<svg width="106" height="56" viewBox="0 0 106 56" fill="none" xmlns="http://www.w3.org/2000/svg">
<g filter="url(#filter0_d_14_489)">
<path d="M64.1928 31.4707C64.7246 31.3219 65.0404 30.7532 64.8983 30.2L63.8404 26.0804C63.6981 25.5264 63.1506 25.1978 62.618 25.3468L42.5218 30.9695C42.184 31.0687 41.8106 31.0479 41.4665 30.8852C40.6889 30.5169 40.3457 29.5635 40.6987 28.7541C40.6995 28.7521 40.7011 28.7505 40.703 28.7497C40.7049 28.7488 40.7065 28.7472 40.7073 28.7452L45.6573 17.4361C46.1576 16.293 44.6406 15.3818 43.938 16.4034L32.2687 33.3688C32.0692 33.7146 31.7455 33.9843 31.3436 34.098C31.3428 34.0982 31.342 34.0982 31.3412 34.0981C31.3404 34.098 31.3396 34.0981 31.3388 34.0983L5.13117 41.4305C4.5994 41.5792 4.28366 42.1478 4.42562 42.701L5.48315 46.8216C5.62536 47.3757 6.17293 47.7044 6.70562 47.5554L64.1928 31.4707Z" fill="#6D4C41" shape-rendering="crispEdges"/>
<path d="M97.8096 38.4932L71.5903 45.8283C71.5778 45.8317 71.5653 45.8352 71.5529 45.8387L71.5404 45.8422C71.5262 45.8461 71.5137 45.8496 71.5002 45.8524C69.4187 46.3976 67.0926 44.5837 65.0102 41.1965C63.1601 38.1897 61.3804 33.8514 60.1078 28.8975C58.8371 23.9432 58.3017 19.2566 58.4636 15.6863C58.6476 11.6349 59.8084 8.83792 61.9015 8.25278L61.9555 8.23671L88.166 0.904094C87.6483 1.73079 87.2891 2.69175 87.0449 3.65134C86.7368 4.86674 86.5817 6.1505 86.5253 7.40275C86.3232 11.8469 87.1147 16.7546 88.2124 21.0323C89.321 25.3527 90.9559 29.9436 93.2772 33.7183C94.3228 35.4176 95.9042 37.484 97.8096 38.4932Z" fill="#F4F4F4" shape-rendering="crispEdges"/>
<path d="M94.2127 4.55235C92.2913 1.7578 90.2011 0.334165 88.2965 0.866669C85.5687 1.63093 84.9686 5.87383 84.8586 8.30021C84.6968 11.8705 85.2328 16.5559 86.5036 21.5102C87.5655 25.6492 89.1782 30.1908 91.4058 33.8122C93.5048 37.2235 95.8499 39.0411 97.9431 38.4559C99.8465 37.9227 100.974 35.6001 101.301 32.1791C101.586 29.1882 101.365 25.6652 100.741 22.0546C100.252 19.4661 99.6943 17.005 98.8445 14.4062C97.6296 10.6807 96.0442 7.21629 94.2127 4.55235Z" fill="#EBEBEF" shape-rendering="crispEdges"/>
</g>
<defs>
<filter id="filter0_d_14_489" x="0.391602" y="0.756348" width="105.032" height="54.835" filterUnits="userSpaceOnUse" color-interpolation-filters="sRGB">
<feFlood flood-opacity="0" result="BackgroundImageFix"/>
<feColorMatrix in="SourceAlpha" type="matrix" values="0 0 0 0 0 0 0 0 0 0 0 0 0 0 0 0 0 0 127 0" result="hardAlpha"/>
<feOffset dy="4"/>
<feGaussianBlur stdDeviation="2"/>
<feComposite in2="hardAlpha" operator="out"/>
<feColorMatrix type="matrix" values="0 0 0 0 0 0 0 0 0 0 0 0 0 0 0 0 0 0 0.25 0"/>
<feBlend mode="normal" in2="BackgroundImageFix" result="effect1_dropShadow_14_489"/>
<feBlend mode="normal" in="SourceGraphic" in2="effect1_dropShadow_14_489" result="shape"/>
</filter>
</defs>
</svg>
