<svg width="1024" height="1024" viewBox="0 0 1024 1024" fill="none" xmlns="http://www.w3.org/2000/svg">
<path d="M224 480L864 480C872.487 480 880.626 483.371 886.627 489.373C892.629 495.374 896 503.513 896 512C896 520.487 892.629 528.626 886.627 534.627C880.626 540.629 872.487 544 864 544L224 544C215.513 544 207.374 540.629 201.373 534.627C195.371 528.626 192 520.487 192 512C192 503.513 195.371 495.374 201.373 489.373C207.374 483.371 215.513 480 224 480Z" fill="black"/>
<path d="M237.248 512L502.656 777.344C508.664 783.353 512.04 791.502 512.04 800C512.04 808.498 508.664 816.647 502.656 822.656C496.647 828.665 488.497 832.04 480 832.04C471.502 832.04 463.352 828.665 457.344 822.656L169.344 534.656C166.364 531.683 163.999 528.152 162.386 524.264C160.773 520.377 159.942 516.209 159.942 512C159.942 507.791 160.773 503.623 162.386 499.735C163.999 495.848 166.364 492.316 169.344 489.344L457.344 201.344C463.352 195.335 471.502 191.96 480 191.96C488.497 191.96 496.647 195.335 502.656 201.344C508.664 207.353 512.04 215.502 512.04 224C512.04 232.498 508.664 240.647 502.656 246.656L237.248 512Z" fill="black"/>
</svg>
