<svg width="15" height="9" viewBox="0 0 15 9" fill="none" xmlns="http://www.w3.org/2000/svg">
<path id="Vector" d="M1.66667 7.2V1.8H7.5V7.2H1.66667ZM14.1667 2.25C14.3967 2.25 14.5931 2.33789 14.7559 2.51367C14.9186 2.68945 15 2.90156 15 3.15V5.85C15 6.09844 14.9186 6.31055 14.7559 6.48633C14.5931 6.66211 14.3967 6.75 14.1667 6.75V7.875C14.1667 8.18437 14.0647 8.44922 13.8607 8.66953C13.6567 8.88984 13.4115 9 13.125 9H1.04167C0.755208 9 0.509983 8.88984 0.30599 8.66953C0.101997 8.44922 0 8.18437 0 7.875V1.125C0 0.815625 0.101997 0.550781 0.30599 0.330469C0.509983 0.110156 0.755208 0 1.04167 0H13.125C13.4115 0 13.6567 0.110156 13.8607 0.330469C14.0647 0.550781 14.1667 0.815625 14.1667 1.125V2.25ZM14.1667 5.85V3.15H13.3333V1.125C13.3333 1.05938 13.3138 1.00547 13.2747 0.963281C13.2357 0.921094 13.1858 0.9 13.125 0.9H1.04167C0.980903 0.9 0.93099 0.921094 0.891927 0.963281C0.852865 1.00547 0.833333 1.05938 0.833333 1.125V7.875C0.833333 7.94063 0.852865 7.99453 0.891927 8.03672C0.93099 8.07891 0.980903 8.1 1.04167 8.1H13.125C13.1858 8.1 13.2357 8.07891 13.2747 8.03672C13.3138 7.99453 13.3333 7.94063 13.3333 7.875V5.85H14.1667Z" fill="black" fill-opacity="0.5"/>
</svg>
