<svg width="6" height="9" viewBox="0 0 6 9" fill="none" xmlns="http://www.w3.org/2000/svg">
<path id="Vector" d="M2.54935 0.0256689C2.60509 0.00323377 2.667 -0.00473368 2.72775 0.00270988C2.7885 0.0101534 2.84554 0.0326962 2.89213 0.067669L5.8877 2.31768C5.92302 2.34421 5.95134 2.37717 5.97069 2.41425C5.99003 2.45133 5.99995 2.49165 5.99974 2.53242C5.99954 2.57319 5.98922 2.61344 5.96951 2.65037C5.94979 2.6873 5.92115 2.72004 5.88556 2.7463L3.50322 4.49981L5.88556 6.25331C5.92122 6.27958 5.94993 6.31233 5.96969 6.3493C5.98945 6.38627 5.99979 6.42656 6 6.46738C6.0002 6.5082 5.99026 6.54857 5.97087 6.58569C5.95148 6.6228 5.9231 6.65578 5.8877 6.68231L2.89213 8.93232C2.8455 8.96733 2.7884 8.98988 2.7276 8.99731C2.66679 9.00473 2.60483 8.99672 2.54906 8.97422C2.49329 8.95172 2.44606 8.91568 2.41296 8.87036C2.37987 8.82505 2.3623 8.77237 2.36234 8.71857V5.33981L0.535892 6.68381C0.503883 6.70911 0.466388 6.72849 0.425644 6.74081C0.384899 6.75313 0.341741 6.75813 0.298743 6.75552C0.255745 6.75291 0.213788 6.74273 0.175376 6.7256C0.136963 6.70847 0.102882 6.68473 0.0751644 6.65581C0.0474473 6.62688 0.0266624 6.59336 0.0140496 6.55725C0.00143687 6.52113 -0.00274545 6.48316 0.00175233 6.44559C0.00625012 6.40803 0.0193359 6.37165 0.0402288 6.33861C0.0611217 6.30557 0.0893938 6.27657 0.123358 6.25331L2.36234 4.60481V4.39406L0.123358 2.74668C0.0893938 2.72342 0.0611217 2.69441 0.0402288 2.66138C0.0193359 2.62834 0.00625012 2.59196 0.00175233 2.5544C-0.00274545 2.51683 0.00143687 2.47886 0.0140496 2.44274C0.0266624 2.40663 0.0474473 2.37311 0.0751644 2.34418C0.102882 2.31526 0.136963 2.29152 0.175376 2.27439C0.213788 2.25726 0.255745 2.24708 0.298743 2.24447C0.341741 2.24186 0.384899 2.24686 0.425644 2.25918C0.466388 2.2715 0.503883 2.29088 0.535892 2.31618L2.36234 3.6598V0.281045C2.36238 0.227265 2.38002 0.174624 2.41317 0.129361C2.44632 0.084099 2.49357 0.048113 2.54935 0.0256689ZM3.00425 4.86693V8.10694L5.18246 6.47081L3.00425 4.86693ZM3.00425 4.13268L5.18246 2.5288L3.00425 0.892671V4.13268Z" fill="black" fill-opacity="0.5"/>
</svg>
