<svg width="21" height="18" viewBox="0 0 21 18" fill="none" xmlns="http://www.w3.org/2000/svg">
<g id="Icon / Forward" clip-path="url(#clip0_17_149)">
<g id="Group">
<path id="Vector" fill-rule="evenodd" clip-rule="evenodd" d="M7.897 3.264H14.807V5.524L19.507 2.763L14.808 0V2.26H7.898C3.543 2.26 0 5.752 0 10.043C0 14.334 3.543 17.826 7.897 17.826V16.822C4.087 16.822 0.987 13.781 0.987 10.043C0.987 6.305 4.087 3.264 7.897 3.264ZM10.654 9.702C10.278 9.992 9.799 10.147 9.217 10.164V11.065H11.232V17.828H12.464V8.572H11.36C11.266 9.034 11.03 9.41 10.654 9.702ZM20.779 13.605C20.6445 13.2443 20.4368 12.9154 20.169 12.639C19.9002 12.3683 19.5762 12.1589 19.219 12.025C18.8235 11.8778 18.404 11.8052 17.982 11.811C17.811 11.811 17.635 11.826 17.455 11.856C17.0958 11.9177 16.7519 12.0481 16.442 12.24C16.2925 12.332 16.1582 12.4467 16.044 12.58L16.634 9.747H20.574V8.572H15.774L14.786 13.311L15.928 13.741C16.131 13.4747 16.3924 13.2585 16.692 13.109C17.004 12.947 17.352 12.867 17.738 12.867C18.028 12.867 18.296 12.913 18.539 13.005C18.7782 13.0927 18.9963 13.2298 19.179 13.4075C19.3616 13.5851 19.5047 13.7993 19.599 14.036C19.701 14.284 19.752 14.569 19.752 14.892C19.752 15.179 19.703 15.444 19.605 15.688C19.512 15.9243 19.3725 16.1395 19.195 16.321C19.0153 16.5022 18.7987 16.6427 18.56 16.733C18.2975 16.8309 18.0191 16.8794 17.739 16.876C17.439 16.876 17.169 16.826 16.93 16.726C16.69 16.626 16.481 16.492 16.302 16.322C16.1206 16.1495 15.9746 15.9433 15.872 15.715C15.7646 15.4798 15.697 15.2284 15.672 14.971L14.531 15.258C14.5962 16.0005 14.9429 16.6899 15.5 17.185C15.778 17.433 16.107 17.63 16.488 17.778C16.869 17.926 17.286 18 17.74 18C18.2052 18.007 18.6672 17.9227 19.1 17.752C19.502 17.586 19.844 17.362 20.126 17.079C20.409 16.797 20.625 16.466 20.775 16.087C20.9257 15.7022 21.002 15.2923 21 14.879C21.0038 14.4445 20.9289 14.0129 20.779 13.605Z" fill="white"/>
</g>
</g>
<defs>
<clipPath id="clip0_17_149">
<rect width="21" height="18" fill="white"/>
</clipPath>
</defs>
</svg>
