<svg width="1024" height="1024" viewBox="0 0 1024 1024" fill="none" xmlns="http://www.w3.org/2000/svg">
<path d="M800 544L160 544C151.513 544 143.374 540.629 137.373 534.627C131.371 528.626 128 520.487 128 512C128 503.513 131.371 495.374 137.373 489.372C143.374 483.371 151.513 480 160 480L800 480C808.487 480 816.626 483.371 822.627 489.373C828.629 495.374 832 503.513 832 512C832 520.487 828.629 528.626 822.627 534.627C816.626 540.629 808.487 544 800 544Z" fill="black"/>
<path d="M786.752 512L521.344 246.656C515.336 240.647 511.96 232.498 511.96 224C511.96 215.502 515.336 207.353 521.344 201.344C527.353 195.335 535.503 191.96 544 191.96C552.498 191.96 560.648 195.335 566.656 201.344L854.656 489.344C857.636 492.317 860.001 495.848 861.614 499.735C863.227 503.623 864.058 507.791 864.058 512C864.058 516.209 863.227 520.377 861.614 524.265C860.001 528.152 857.636 531.683 854.656 534.656L566.656 822.656C560.648 828.665 552.498 832.04 544 832.04C535.503 832.04 527.353 828.665 521.344 822.656C515.336 816.647 511.96 808.498 511.96 800C511.96 791.502 515.336 783.353 521.344 777.344L786.752 512Z" fill="black"/>
</svg>
