<svg width="641" height="641" viewBox="0 0 641 641" fill="none" xmlns="http://www.w3.org/2000/svg">
<path fill-rule="evenodd" clip-rule="evenodd" d="M470.067 149.567V256.4H534.167C551.167 256.4 567.471 263.153 579.492 275.174C591.513 287.196 598.267 303.5 598.267 320.5V576.9C598.267 593.9 591.513 610.204 579.492 622.226C567.471 634.247 551.167 641 534.167 641H106.833C89.833 641 73.5289 634.247 61.5079 622.226C49.4868 610.204 42.7334 593.9 42.7334 576.9V320.5C42.7334 303.5 49.4868 287.196 61.5079 275.174C73.5289 263.153 89.833 256.4 106.833 256.4H170.933V149.567C170.933 109.899 186.691 71.8563 214.74 43.8071C242.79 15.7579 280.833 0 320.5 0C360.168 0 398.21 15.7579 426.26 43.8071C454.309 71.8563 470.067 109.899 470.067 149.567ZM213.667 149.567C213.667 121.233 224.922 94.0592 244.957 74.0241C264.993 53.989 292.166 42.7333 320.5 42.7333C348.834 42.7333 376.008 53.989 396.043 74.0241C416.078 94.0592 427.333 121.233 427.333 149.567V256.4H213.667V149.567Z" fill="black"/>
</svg>
