<svg width="16" height="24" viewBox="0 0 16 24" fill="none" xmlns="http://www.w3.org/2000/svg">
<path id="Vector" d="M8 0C6.80653 0 5.66193 0.474106 4.81802 1.31802C3.97411 2.16193 3.5 3.30653 3.5 4.5V12.5C3.5 13.0909 3.6164 13.6761 3.84254 14.2221C4.06869 14.768 4.40016 15.2641 4.81802 15.682C5.23588 16.0998 5.73196 16.4313 6.27792 16.6575C6.82389 16.8836 7.40905 17 8 17C8.59095 17 9.17611 16.8836 9.72208 16.6575C10.268 16.4313 10.7641 16.0998 11.182 15.682C11.5998 15.2641 11.9313 14.768 12.1575 14.2221C12.3836 13.6761 12.5 13.0909 12.5 12.5V4.5C12.5 3.30653 12.0259 2.16193 11.182 1.31802C10.3381 0.474106 9.19347 0 8 0ZM1.5 11.75C1.5 11.5511 1.42098 11.3603 1.28033 11.2197C1.13968 11.079 0.948912 11 0.75 11C0.551088 11 0.360322 11.079 0.21967 11.2197C0.0790175 11.3603 3.42142e-09 11.5511 3.42142e-09 11.75V12.5C-5.82204e-05 14.4919 0.743002 16.4122 2.08384 17.8853C3.42468 19.3584 5.26684 20.2783 7.25 20.465V23.25C7.25 23.4489 7.32902 23.6397 7.46967 23.7803C7.61032 23.921 7.80109 24 8 24C8.19891 24 8.38968 23.921 8.53033 23.7803C8.67098 23.6397 8.75 23.4489 8.75 23.25V20.465C10.7332 20.2783 12.5753 19.3584 13.9162 17.8853C15.257 16.4122 16.0001 14.4919 16 12.5V11.75C16 11.5511 15.921 11.3603 15.7803 11.2197C15.6397 11.079 15.4489 11 15.25 11C15.0511 11 14.8603 11.079 14.7197 11.2197C14.579 11.3603 14.5 11.5511 14.5 11.75V12.5C14.5 14.2239 13.8152 15.8772 12.5962 17.0962C11.3772 18.3152 9.72391 19 8 19C6.27609 19 4.62279 18.3152 3.40381 17.0962C2.18482 15.8772 1.5 14.2239 1.5 12.5V11.75Z" fill="black" fill-opacity="0.5"/>
</svg>
