<svg width="125" height="125" viewBox="0 0 125 125" fill="none" xmlns="http://www.w3.org/2000/svg">
<g id="emojione:sun-behind-cloud">
<g id="Group">
<path id="Vector" d="M28.7109 86.7188L38.0859 77.1484C34.7656 76.3672 31.6406 75.1953 28.9062 73.2422L28.7109 86.7188ZM59.1797 12.8906L49.8047 22.4609C53.125 23.2422 56.25 24.4141 58.9844 26.3672L59.1797 12.8906ZM7.03125 65.0391L20.5078 64.8438C18.75 62.1094 17.3828 58.9844 16.6016 55.6641L7.03125 65.0391ZM80.8594 34.5703L67.3828 34.7656C69.1406 37.5 70.5078 40.625 71.2891 43.9453L80.8594 34.5703ZM7.03125 34.5703L16.6016 43.9453C17.3828 40.625 18.5547 37.5 20.5078 34.7656L7.03125 34.5703ZM80.8594 65.0391L71.2891 55.6641C70.5078 58.9844 69.3359 62.1094 67.3828 64.8438L80.8594 65.0391ZM28.7109 12.8906L28.9062 26.3672C31.6406 24.6094 34.7656 23.2422 38.0859 22.4609L28.7109 12.8906ZM59.1797 86.7188L58.9844 73.2422C56.25 75 53.125 76.3672 49.8047 77.1484L59.1797 86.7188ZM20.8984 65.8203L15.625 78.125L27.9297 72.8516C25.1953 70.8984 22.8516 68.5547 20.8984 65.8203ZM66.9922 33.7891L72.2656 21.4844L59.9609 26.7578C62.6953 28.7109 65.0391 31.0547 66.9922 33.7891ZM16.4062 44.7266L3.90625 49.8047L16.4062 54.8828C16.2109 53.3203 16.0156 51.5625 16.0156 49.8047C15.8203 48.0469 16.0156 46.4844 16.4062 44.7266ZM71.4844 54.8828L83.9844 49.8047L71.4844 44.7266C71.875 46.2891 71.875 48.0469 71.875 49.8047C71.875 51.5625 71.875 53.125 71.4844 54.8828ZM27.9297 26.7578L15.625 21.4844L20.8984 33.7891C22.8516 31.0547 25.1953 28.7109 27.9297 26.7578ZM59.9609 72.8516L72.2656 78.125L66.9922 65.8203C65.0391 68.5547 62.6953 70.8984 59.9609 72.8516ZM49.0234 22.2656L43.9453 9.76562L38.8672 22.2656C40.4297 22.0703 42.1875 21.875 43.9453 21.875C45.7031 21.6797 47.2656 21.875 49.0234 22.2656ZM38.8672 77.3438L43.9453 89.8438L49.0234 77.3438C47.4609 77.5391 45.7031 77.7344 43.9453 77.7344C42.1875 77.7344 40.625 77.7344 38.8672 77.3438Z" fill="#FFCE31"/>
<path id="Vector_2" d="M43.9453 75.1953C57.9682 75.1953 69.3359 63.8275 69.3359 49.8047C69.3359 35.7818 57.9682 24.4141 43.9453 24.4141C29.9225 24.4141 18.5547 35.7818 18.5547 49.8047C18.5547 63.8275 29.9225 75.1953 43.9453 75.1953Z" fill="#FFCE31"/>
</g>
<path id="Vector_3" d="M33.5938 111.523C31.6406 111.523 29.6875 111.133 27.9297 110.547C20.5078 108.008 15.4297 100.977 15.4297 92.9687C15.4297 87.6953 17.7734 82.4219 21.6797 78.9063C22.6563 77.9297 23.8281 77.1484 25 76.5625L26.1719 72.2656C29.1016 61.5234 38.8672 54.1016 49.8047 54.1016C50.9766 54.1016 51.9531 54.1016 53.3203 54.2969L56.25 54.8828L56.6406 53.9063C61.1328 45.7031 69.5312 40.8203 78.5156 40.8203C92.3828 40.8203 103.516 52.3438 103.516 66.4062V68.9453C104.492 69.3359 105.664 69.9219 106.641 70.5078C113.281 74.4141 117.383 81.8359 117.383 89.6484C117.383 100 110.547 108.789 100.586 111.133C99.0234 111.523 97.2656 111.719 95.7031 111.719H33.5938V111.523Z" fill="white"/>
<path id="Vector_4" d="M78.7109 44.5312C90.4297 44.5312 100 54.2969 100 66.4062V68.1641C95.1172 68.5547 90.625 70.5078 87.1094 73.6328C89.6484 72.0703 92.7734 71.2891 96.0938 71.2891C97.2656 71.2891 98.4375 71.4844 99.6094 71.6797C101.562 72.0703 103.32 72.8516 105.078 73.8281C110.352 76.9531 114.062 82.8125 114.062 89.6484C114.062 98.2422 108.203 105.664 100.195 107.422C98.8281 107.812 97.6562 107.812 96.0938 107.812H33.5938C32.0313 107.812 30.4688 107.617 29.1016 107.031C23.2422 105.078 19.1406 99.4141 19.1406 92.9687C19.1406 88.4766 21.0937 84.5703 24.2187 81.8359C25.5859 80.6641 27.1484 79.6875 28.9062 78.9063C30.4688 78.3203 32.0312 78.125 33.7891 78.125C38.4766 78.125 42.5781 80.4688 45.3125 83.9844H45.5078C42.3828 78.125 36.7188 74.0234 29.8828 73.4375C32.4219 64.4531 40.4297 57.8125 50 57.8125C50.9766 57.8125 51.9531 58.0078 52.9297 58.0078C54.8828 58.2031 56.6406 58.7891 58.3984 59.5703C64.8438 62.5 69.5312 68.75 70.7031 76.1719V75.9766C70.7031 67.5781 66.4062 60.1562 60.1562 55.8594C63.6719 49.0234 70.5078 44.5312 78.7109 44.5312ZM78.7109 37.1094C68.9453 37.1094 59.7656 42.1875 54.4922 50.7812H53.9062C52.3438 50.5859 51.1719 50.3906 49.8047 50.3906C37.3047 50.3906 25.9766 58.9844 22.6563 71.2891L21.6797 74.2188C20.7031 74.8047 19.9219 75.3906 19.1406 76.1719C14.4531 80.2734 11.7188 86.5234 11.7188 92.9687C11.7188 102.539 17.7734 111.133 26.7578 114.062C28.9062 114.844 31.25 115.234 33.5938 115.234H95.8984C97.8516 115.234 99.6094 115.039 101.562 114.648C113.086 111.914 121.094 101.562 121.094 89.6484C121.094 80.4688 116.211 71.875 108.398 67.3828L107.227 66.7969V66.6016C107.227 50.1953 94.5312 37.1094 78.7109 37.1094Z" fill="#75D6FF"/>
</g>
</svg>
