<svg width="561" height="561" viewBox="0 0 561 561" fill="none" xmlns="http://www.w3.org/2000/svg">
<path d="M280.5 560.833C202.241 560.833 135.953 533.676 81.6389 479.361C27.3243 425.047 0.166992 358.76 0.166992 280.5C0.166992 202.24 27.3243 135.953 81.6389 81.6385C135.953 27.3239 202.241 0.166626 280.5 0.166626C320.798 0.166626 359.344 8.48318 396.138 25.1163C432.932 41.7494 464.469 65.5544 490.75 96.5312V0.166626H560.834V245.458H315.542V175.375H462.717C444.028 142.669 418.471 116.972 386.046 98.2833C353.621 79.5944 318.439 70.25 280.5 70.25C222.098 70.25 172.455 90.6909 131.573 131.573C90.6913 172.455 70.2503 222.097 70.2503 280.5C70.2503 338.903 90.6913 388.545 131.573 429.427C172.455 470.309 222.098 490.75 280.5 490.75C325.47 490.75 366.06 477.901 402.27 452.204C438.48 426.507 463.885 392.633 478.486 350.583H552.073C535.72 412.49 502.431 463.009 452.204 502.139C401.978 541.268 344.743 560.833 280.5 560.833Z" fill="black"/>
</svg>
