<svg width="23" height="18" viewBox="0 0 23 18" fill="none" xmlns="http://www.w3.org/2000/svg">
<g id="Icon / Backward" clip-path="url(#clip0_17_146)">
<g id="Group">
<path id="Vector" fill-rule="evenodd" clip-rule="evenodd" d="M1.463 9.542C1.08 9.837 0.592 9.992 0 10.01V10.92H2.051V17.749H3.306V8.402H2.182C2.09264 8.85827 1.83625 9.26478 1.463 9.542ZM11.153 12.509C10.8787 12.2356 10.5489 12.0242 10.186 11.889C9.61256 11.676 8.99332 11.6171 8.39 11.718C8.02326 11.7784 7.67215 11.911 7.357 12.108C7.201 12.203 7.066 12.318 6.952 12.45L7.553 9.59H11.565V8.402H6.677L5.671 13.187L6.834 13.622C7.05196 13.3428 7.33156 13.1178 7.65094 12.9646C7.97032 12.8114 8.32082 12.7342 8.675 12.739C8.972 12.739 9.244 12.785 9.491 12.877C9.74 12.969 9.955 13.104 10.139 13.278C10.322 13.455 10.465 13.668 10.569 13.918C10.674 14.168 10.727 14.457 10.727 14.782C10.727 15.072 10.677 15.34 10.577 15.586C10.477 15.833 10.337 16.046 10.159 16.226C9.979 16.406 9.765 16.544 9.512 16.641C9.24448 16.7397 8.96112 16.7885 8.676 16.785C8.372 16.785 8.097 16.735 7.853 16.634C7.61647 16.5379 7.39955 16.3993 7.213 16.225C7.02845 16.0515 6.87965 15.8436 6.775 15.613C6.66556 15.3755 6.59694 15.1213 6.572 14.861L5.41 15.151C5.47669 15.9018 5.83018 16.5981 6.397 17.095C6.68 17.345 7.016 17.545 7.403 17.695C7.791 17.845 8.215 17.92 8.677 17.92C9.191 17.92 9.653 17.836 10.062 17.67C10.472 17.503 10.82 17.276 11.108 16.991C11.395 16.705 11.615 16.371 11.768 15.989C11.92 15.607 11.997 15.2 11.997 14.769C11.997 14.295 11.923 13.866 11.775 13.483C11.6371 13.1186 11.4254 12.7866 11.153 12.508V12.509ZM14.959 2.282H7.923V0L3.136 2.789L7.923 5.579V3.295H14.959C18.839 3.295 21.995 6.365 21.995 10.14C21.995 13.914 18.839 16.985 14.959 16.985V18C19.393 18 23 14.474 23 10.14C23 5.808 19.393 2.282 14.96 2.282H14.959Z" fill="white"/>
</g>
</g>
<defs>
<clipPath id="clip0_17_146">
<rect width="23" height="18" fill="white"/>
</clipPath>
</defs>
</svg>
