<svg width="90" height="28" viewBox="0 0 90 28" fill="none" xmlns="http://www.w3.org/2000/svg">
<g id="Icon / Logotype" clip-path="url(#clip0_17_150)">
<path id="Vector" fill-rule="evenodd" clip-rule="evenodd" d="M13.8545 0C6.20727 0 0 6.2496 0 13.9496C0 21.6664 6.20727 27.9006 13.8545 27.9006C21.5182 27.9006 27.7091 21.6496 27.7091 13.9496C27.7282 6.2496 21.5182 0 13.8545 0ZM20.2118 20.1334C20.0894 20.3321 19.8956 20.4732 19.6725 20.5261C19.4494 20.5791 19.2149 20.5396 19.02 20.4162C15.7582 18.417 11.67 17.9662 6.83591 19.0666C6.37227 19.166 5.90864 18.8846 5.81045 18.417C5.78601 18.3056 5.78334 18.1904 5.80261 18.078C5.82187 17.9655 5.86269 17.8582 5.92269 17.762C5.98269 17.6659 6.06068 17.583 6.15213 17.5181C6.24359 17.4531 6.34669 17.4075 6.45545 17.3838C11.7355 16.1658 16.2723 16.6838 19.9145 18.9336C20.3441 19.1828 20.4764 19.7176 20.2118 20.1334ZM21.9164 16.3338C21.762 16.5805 21.5207 16.7564 21.2429 16.8247C20.9652 16.8931 20.6725 16.8486 20.4259 16.7006C16.7032 14.3836 11.025 13.7172 6.62182 15.0668C6.04227 15.2334 5.44636 14.917 5.28 14.35C5.23935 14.2123 5.22603 14.0677 5.24083 13.9246C5.25563 13.7815 5.29824 13.643 5.36614 13.5171C5.43404 13.3913 5.52586 13.2807 5.63614 13.1919C5.74642 13.1032 5.87293 13.038 6.00818 13.0004C11.04 11.466 17.2991 12.1996 21.585 14.8498C22.065 15.1494 22.2314 15.8158 21.9164 16.3338ZM22.0664 12.3662C17.595 9.702 10.2286 9.45 5.95909 10.752C5.63177 10.8536 5.27874 10.8196 4.97549 10.6574C4.67224 10.4952 4.44285 10.2176 4.33636 9.884C4.12227 9.2008 4.51909 8.4686 5.19818 8.2516C10.0977 6.7508 18.2414 7.0518 23.3727 10.1178C23.5176 10.2034 23.6443 10.3178 23.7455 10.4544C23.8466 10.5909 23.9202 10.7468 23.9619 10.913C24.0035 11.0791 24.0124 11.2522 23.9881 11.4219C23.9637 11.5916 23.9066 11.7547 23.82 11.9014C23.7354 12.0512 23.6226 12.1822 23.4883 12.2868C23.3539 12.3915 23.2007 12.4677 23.0374 12.5111C22.8741 12.5544 22.7041 12.5641 22.5372 12.5395C22.3703 12.5148 22.2098 12.4564 22.065 12.3676L22.0664 12.3662ZM37.7073 12.8828C35.3073 12.3172 34.8941 11.9 34.8941 11.0488C34.8941 10.2508 35.6386 9.716 36.7486 9.716C37.8232 9.716 38.8991 10.1332 40.0255 10.9662C40.0582 10.9998 40.1073 10.9998 40.1414 10.9998C40.1905 10.9998 40.2232 10.9662 40.2409 10.934L41.4164 9.2666C41.428 9.25005 41.4364 9.23132 41.4409 9.21146C41.4455 9.1916 41.4463 9.171 41.4431 9.15085C41.4399 9.1307 41.4329 9.11138 41.4225 9.09401C41.4121 9.07664 41.3984 9.06155 41.3823 9.0496C40.0418 7.966 38.535 7.4494 36.7814 7.4494C34.1986 7.4494 32.3945 9.0174 32.3945 11.2504C32.3945 13.65 33.9491 14.4998 36.6491 15.1494C38.9332 15.6828 39.33 16.1336 39.33 16.9162C39.33 17.7996 38.5527 18.3498 37.2941 18.3498C35.9032 18.3498 34.7618 17.8836 33.4868 16.7678C33.4541 16.7328 33.405 16.7328 33.3709 16.7328C33.3218 16.7328 33.2891 16.7496 33.2714 16.7832L31.9636 18.3512C31.9145 18.417 31.9145 18.5164 31.98 18.5668C33.4377 19.8871 35.3175 20.6106 37.2614 20.5996C40.0418 20.5996 41.8459 19.0666 41.8459 16.7006C41.8132 14.7 40.6377 13.5996 37.7073 12.8828ZM48.12 10.5C46.9118 10.5 45.9177 10.983 45.1064 11.9672V10.8668C45.1062 10.8469 45.1022 10.8273 45.0946 10.809C45.0871 10.7908 45.0761 10.7742 45.0623 10.7603C45.0485 10.7464 45.0321 10.7354 45.0142 10.728C44.9963 10.7205 44.9771 10.7168 44.9577 10.717H42.8223C42.7405 10.717 42.6736 10.7828 42.6736 10.8668V23.1336C42.6736 23.2176 42.7405 23.2834 42.8236 23.2834H44.9577C45.0395 23.2834 45.1077 23.2162 45.1077 23.1336V19.2668C45.9177 20.1838 46.9118 20.6332 48.12 20.6332C50.355 20.6332 52.6391 18.9 52.6391 15.5666C52.6391 12.25 50.355 10.5 48.12 10.5ZM50.1382 15.5666C50.1382 17.2662 49.0964 18.4338 47.6236 18.4338C46.1509 18.4338 45.0573 17.2004 45.0573 15.5666C45.0573 13.9328 46.1659 12.6994 47.6236 12.6994C49.08 12.6994 50.1395 13.9006 50.1395 15.5666H50.1382ZM58.4482 10.5C55.5682 10.5 53.3005 12.7498 53.3005 15.6002C53.3005 18.4338 55.5518 20.65 58.4155 20.65C61.3118 20.65 63.5795 18.417 63.5795 15.5666C63.5795 12.733 61.3295 10.5 58.4482 10.5ZM58.4482 18.466C56.91 18.466 55.7509 17.2172 55.7509 15.5834C55.7509 13.9328 56.8759 12.733 58.4155 12.733C59.9564 12.733 61.1291 13.9832 61.1291 15.6338C61.1291 17.2662 60.0041 18.466 58.4482 18.466ZM69.7541 10.7002H67.4045V8.2838C67.4044 8.26382 67.4003 8.24408 67.3927 8.22572C67.385 8.20735 67.3739 8.19072 67.36 8.17679C67.346 8.16286 67.3295 8.15191 67.3114 8.14456C67.2933 8.13722 67.274 8.13363 67.2545 8.134H65.1191C65.0373 8.134 64.9705 8.1998 64.9705 8.2838V10.717H63.945C63.8618 10.717 63.795 10.7828 63.795 10.8668V12.7162C63.795 12.8002 63.8618 12.866 63.945 12.866H64.9705V17.6666C64.9705 19.6 65.9305 20.5828 67.8177 20.5828C68.5786 20.5828 69.225 20.4162 69.8209 20.083C69.87 20.0494 69.9027 19.999 69.9027 19.95V18.1832C69.9027 18.1328 69.87 18.0838 69.8373 18.0502C69.8156 18.0336 69.7893 18.0246 69.7623 18.0246C69.7352 18.0246 69.7089 18.0336 69.6873 18.0502C69.2986 18.2549 68.8667 18.3579 68.43 18.3498C67.7345 18.3498 67.4373 18.0334 67.4373 17.3334V12.8828H69.7882C69.87 12.8828 69.9368 12.817 69.9368 12.733V10.8668C69.9041 10.7828 69.8373 10.6988 69.7541 10.6988V10.7002ZM77.9645 10.717V10.416C77.9645 9.534 78.2959 9.1504 79.0418 9.1504C79.4877 9.1504 79.8518 9.2344 80.2486 9.366C80.2991 9.3828 80.3482 9.366 80.3986 9.3506C80.4314 9.317 80.4641 9.2666 80.4641 9.2162V7.4004C80.4629 7.36599 80.451 7.33287 80.4302 7.30591C80.4093 7.27895 80.3806 7.25956 80.3482 7.2506C79.7689 7.07269 79.1663 6.98815 78.5618 7C76.575 7 75.5318 8.1172 75.5318 10.2494V10.7002H74.505C74.4232 10.7002 74.34 10.766 74.34 10.85V12.7162C74.34 12.8002 74.4055 12.866 74.505 12.866H75.5318V20.2664C75.5318 20.3504 75.5973 20.4162 75.6805 20.4162H77.8159C77.8977 20.4162 77.9659 20.3504 77.9659 20.2664V12.8828H79.9677L83.0305 20.2832C82.6827 21.0672 82.335 21.217 81.8714 21.217C81.4895 21.217 81.0941 21.0994 80.6959 20.8838C80.6632 20.867 80.6141 20.867 80.5636 20.867C80.5309 20.8838 80.4818 20.916 80.4641 20.951L79.7359 22.5498C79.7032 22.6338 79.7359 22.7178 79.8027 22.75C80.5009 23.1473 81.2887 23.3487 82.0868 23.3338C83.6755 23.3338 84.5359 22.5834 85.3145 20.5996L89.0386 10.934C89.0484 10.9094 89.052 10.8827 89.0491 10.8563C89.0463 10.8299 89.037 10.8046 89.0223 10.7828C89.0075 10.7612 88.9876 10.7438 88.9644 10.7323C88.9413 10.7208 88.9157 10.7155 88.89 10.717H86.655C86.5895 10.717 86.5227 10.766 86.505 10.8164L84.2223 17.3824L81.7718 10.8164C81.7555 10.7506 81.69 10.717 81.6218 10.717H77.9645ZM73.2136 10.7002H71.0782C70.9964 10.7002 70.9295 10.766 70.9295 10.85V20.2664C70.9295 20.3504 70.9964 20.4162 71.0795 20.4162H73.2136C73.2968 20.4162 73.3636 20.3504 73.3636 20.2664V10.8668C73.3636 10.7828 73.2968 10.6988 73.2136 10.6988V10.7002ZM72.1377 6.4162C71.2936 6.4162 70.5982 7.1162 70.5982 7.966C70.5982 8.8172 71.2936 9.5172 72.1391 9.5172C72.9818 9.5172 73.6773 8.8172 73.6773 7.966C73.6773 7.1162 72.9995 6.4162 72.1377 6.4162Z" fill="white"/>
</g>
<defs>
<clipPath id="clip0_17_150">
<rect width="90" height="28" fill="white"/>
</clipPath>
</defs>
</svg>
