<svg width="12" height="9" viewBox="0 0 12 9" fill="none" xmlns="http://www.w3.org/2000/svg">
<path id="Vector" d="M8.82393 5.97955C8.07107 5.31273 7.08778 4.90909 6.01073 4.90909C4.93368 4.90909 3.9504 5.31273 3.19619 5.98091C3.17536 6.00002 3.16261 6.0266 3.16062 6.05508C3.15862 6.08355 3.16753 6.1117 3.18547 6.13364L3.66774 6.71864C3.70659 6.765 3.77491 6.77045 3.82045 6.73091C4.40453 6.20727 5.17079 5.89091 6.01073 5.89091C6.85067 5.89091 7.61693 6.20727 8.20101 6.72955C8.24656 6.76909 8.31488 6.76364 8.35373 6.71727L8.83599 6.13227C8.8735 6.08727 8.86814 6.01909 8.82393 5.97955ZM10.3966 4.06909C9.2084 3.06136 7.6799 2.45455 6.01073 2.45455C4.34157 2.45455 2.81306 3.06136 1.62348 4.06909C1.60172 4.08777 1.58809 4.11446 1.58558 4.14333C1.58307 4.17219 1.59188 4.2009 1.61008 4.22318L2.09234 4.80818C2.12985 4.85454 2.19817 4.86 2.24238 4.82182C3.26451 3.95727 4.57868 3.43636 6.01073 3.43636C7.44278 3.43636 8.75695 3.95727 9.77774 4.82182C9.82329 4.86 9.89027 4.85454 9.92778 4.80818L10.41 4.22318C10.4475 4.17682 10.4422 4.10727 10.3966 4.06909ZM11.96 2.17364C10.3337 0.815454 8.25191 0 5.98394 0C3.7307 0 1.66233 0.804545 0.0400474 2.14636C0.0289019 2.15548 0.0196606 2.16677 0.012868 2.17958C0.00607534 2.19238 0.00186862 2.20644 0.000495456 2.22093C-0.00087771 2.23542 0.00061047 2.25004 0.00487238 2.26393C0.00913429 2.27782 0.0160837 2.2907 0.0253115 2.30182L0.507574 2.88682C0.545084 2.93182 0.612065 2.93864 0.656272 2.90182C2.11244 1.70045 3.96513 0.981818 5.98394 0.981818C8.01748 0.981818 9.88223 1.71136 11.3424 2.92773C11.388 2.96591 11.4549 2.95909 11.4925 2.91273L11.9747 2.32773C12.0136 2.28136 12.0069 2.21182 11.96 2.17364ZM5.13998 8.12727C5.13998 8.35873 5.23031 8.58072 5.39109 8.74438C5.55188 8.90805 5.76995 9 5.99733 9C6.22472 9 6.44279 8.90805 6.60358 8.74438C6.76436 8.58072 6.85469 8.35873 6.85469 8.12727C6.85469 7.89581 6.76436 7.67383 6.60358 7.51016C6.44279 7.34649 6.22472 7.25455 5.99733 7.25455C5.76995 7.25455 5.55188 7.34649 5.39109 7.51016C5.23031 7.67383 5.13998 7.89581 5.13998 8.12727Z" fill="black" fill-opacity="0.5"/>
</svg>
